<svg xmlns="http://www.w3.org/2000/svg" width="6in" height="1.5in" viewBox="0 0 432 108"><defs><style>.a{fill:#62c8d6;}.b{fill:#ed265b;}.c{fill:#802880;}</style></defs><title>bg_stripes</title><polygon class="a" points="0 -36 0 0 432 108 432 72 0 -36"/><polygon class="b" points="0 -72 0 -36 432 72 432 36 0 -72"/><polygon class="c" points="0 -108 0 -72 432 36 432 0 0 -108"/><polygon class="c" points="0 0 0 36 432 144 432 108 0 0"/><polygon class="b" points="0 36 0 72 432 180 432 144 0 36"/><polygon class="a" points="0 72 0 108 432 216 432 180 0 72"/></svg>